<?xml version="1.0" encoding="utf-8"?>
<!-- Generator: Adobe Illustrator 22.0.0, SVG Export Plug-In . SVG Version: 6.00 Build 0)  -->
<svg version="1.1" id="Layer_1" xmlns="http://www.w3.org/2000/svg" xmlns:xlink="http://www.w3.org/1999/xlink" x="0px" y="0px"
	 viewBox="0 0 119.4 128" style="enable-background:new 0 0 119.4 128;" xml:space="preserve">
<style type="text/css">
	.st0{fill:url(#SVGID_1_);}
	.st1{fill:#FFFFFF;}
</style>
<g>
	
		<linearGradient id="SVGID_1_" gradientUnits="userSpaceOnUse" x1="101.6946" y1="108.2094" x2="12.6282" y2="19.143" gradientTransform="matrix(1 0 0 -1 0 128)">
		<stop  offset="0" style="stop-color:#F9004A"/>
		<stop  offset="1" style="stop-color:#4900F4"/>
	</linearGradient>
	<path class="st0" d="M0,33.5c0-4.9,2.9-9.3,7.4-11.3L54.6,1.1c3.2-1.4,6.9-1.4,10.1,0L112,22.2c4.5,2,7.4,6.4,7.4,11.3v56.6
		c0,4.6-2.5,8.8-6.5,10.9l-47.3,25.5c-3.7,2-8.1,2-11.8,0L6.5,101C2.5,98.8,0,94.6,0,90.1V33.5z"/>
	<path class="st1" d="M47.3,102.1L16.9,85.6c-0.5-0.3-0.8-0.8-0.8-1.4V45.9c0-1.2,1.3-2,2.4-1.4l30.5,16.5c0.5,0.3,0.8,0.8,0.8,1.4
		v6.8c0,1.2-1.3,2-2.4,1.4L27.3,59.7V67l12.1,6.5c0.5,0.3,0.8,0.8,0.8,1.4v3c0,1.2-1.3,2-2.4,1.4l-10.5-5.7v7.2l21.6,11.6
		c0.5,0.3,0.8,0.8,0.8,1.4v6.9C49.7,101.9,48.4,102.7,47.3,102.1z"/>
	<path class="st1" d="M81,79.6v7.2L101,75.9c1.1-0.6,2.4,0.2,2.4,1.4v6.9c0,0.6-0.3,1.1-0.8,1.4l-30.5,16.5
		c-1.1,0.6-2.4-0.2-2.4-1.4V62.3c0-0.6,0.3-1.1,0.8-1.4L101,44.5c1.1-0.6,2.4,0.2,2.4,1.4v6.8c0,0.6-0.3,1.1-0.8,1.4L81,65.8V73
		l10.5-5.7c1.1-0.6,2.4,0.2,2.4,1.4v3c0,0.6-0.3,1.1-0.8,1.4L81,79.6z"/>
</g>
</svg>
