<?xml version="1.0" encoding="utf-8"?>
<!-- Generator: Adobe Illustrator 22.0.0, SVG Export Plug-In . SVG Version: 6.00 Build 0)  -->
<svg version="1.1" id="Layer_1" xmlns="http://www.w3.org/2000/svg" xmlns:xlink="http://www.w3.org/1999/xlink" x="0px" y="0px"
	 viewBox="0 0 241.5 128" style="enable-background:new 0 0 241.5 128;" xml:space="preserve">
<style type="text/css">
	.st0{fill:url(#SVGID_1_);}
	.st1{fill:#FFFFFF;}
</style>
<g>
	
		<linearGradient id="SVGID_1_" gradientUnits="userSpaceOnUse" x1="145.6638" y1="109.2457" x2="56.5974" y2="20.1793" gradientTransform="matrix(1 0 0 -1 0 129.0363)">
		<stop  offset="0" style="stop-color:#F9004A"/>
		<stop  offset="1" style="stop-color:#4900F4"/>
	</linearGradient>
	<path class="st0" d="M44,33.5c0-4.9,2.9-9.3,7.4-11.3L98.6,1.1c3.2-1.4,6.9-1.4,10.1,0L156,22.2c4.5,2,7.4,6.4,7.4,11.3v56.6
		c0,4.6-2.5,8.8-6.5,10.9l-47.3,25.5c-3.7,2-8.1,2-11.8,0L50.5,101c-4-2.2-6.5-6.4-6.5-10.9V33.5z"/>
	<path class="st1" d="M91.3,102.1L60.8,85.6c-0.5-0.3-0.8-0.8-0.8-1.4V45.9c0-1.2,1.3-2,2.4-1.4l30.5,16.5c0.5,0.3,0.8,0.8,0.8,1.4
		v6.8c0,1.2-1.3,2-2.4,1.4L71.3,59.7V67l12.1,6.5c0.5,0.3,0.8,0.8,0.8,1.4v3c0,1.2-1.3,2-2.4,1.4l-10.5-5.7v7.2l21.6,11.6
		c0.5,0.3,0.8,0.8,0.8,1.4v6.9C93.7,101.9,92.4,102.7,91.3,102.1z"/>
	<path class="st1" d="M124.9,79.6v7.2L145,75.9c1.1-0.6,2.4,0.2,2.4,1.4v6.9c0,0.6-0.3,1.1-0.8,1.4l-30.5,16.5
		c-1.1,0.6-2.4-0.2-2.4-1.4V62.3c0-0.6,0.3-1.1,0.8-1.4L145,44.5c1.1-0.6,2.4,0.2,2.4,1.4v6.8c0,0.6-0.3,1.1-0.8,1.4L125,65.8V73
		l10.5-5.7c1.1-0.6,2.4,0.2,2.4,1.4v3c0,0.6-0.3,1.1-0.8,1.4L124.9,79.6z"/>
	<path class="st1" d="M0,45.4v39.1c0,0.6,0.5,1.2,1.2,1.2H10c0.6,0,1.2-0.5,1.2-1.2V69.2h11.7c6.9,0,12.4-5.6,12.4-12.4l0,0
		c0-6.9-5.6-12.4-12.4-12.4H1.2C0.5,44.3,0,44.8,0,45.4z M20.8,60.9h-9.7v-8.3h9.7c2.3,0,4.2,1.9,4.2,4.2l0,0
		C25,59,23.2,60.9,20.8,60.9z"/>
	<path class="st1" d="M183,74.1l3.3-4.3l9.8,15.4c0.2,0.3,0.6,0.5,1,0.5h7c0.9,0,1.5-1,1-1.8l-13.4-21.1l12.9-16.7
		c0.6-0.8,0-1.9-0.9-1.9h-7.5c-0.4,0-0.7,0.2-0.9,0.5L183,60.6V45.4c0-0.6-0.5-1.2-1.2-1.2h-8.2H173c-0.6,0-1.2,0.5-1.2,1.2v39.1
		c0,0.6,0.5,1.2,1.2,1.2h8.8c0.6,0,1.2-0.5,1.2-1.2L183,74.1L183,74.1z"/>
	<path class="st1" d="M238.7,51.4v-5.9c0-0.6-0.5-1.2-1.2-1.2h-13.7c-6.8,0-12.4,5.6-12.4,12.4v0c0,6.8,5.6,12.4,12.4,12.4h4.1
		c2.3,0,4.2,1.9,4.2,4.2v0c0,2.3-1.9,4.2-4.2,4.2h-13.5c-0.6,0-1.2,0.5-1.2,1.2v5.9c0,0.6,0.5,1.2,1.2,1.2h14.6
		c6.9,0,12.5-5.6,12.5-12.5v0c0-6.9-5.6-12.5-12.5-12.5h-4.5c-2.3,0-4.1-1.8-4.1-4.1v0c0-2.3,1.8-4.1,4.1-4.1h13
		C238.2,52.6,238.7,52,238.7,51.4z"/>
</g>
</svg>
