<?xml version="1.0" encoding="utf-8"?>
<!-- Generator: Adobe Illustrator 22.0.0, SVG Export Plug-In . SVG Version: 6.00 Build 0)  -->
<svg version="1.1" id="Layer_1" xmlns="http://www.w3.org/2000/svg" xmlns:xlink="http://www.w3.org/1999/xlink" x="0px" y="0px"
	 viewBox="0 0 141.5 75" style="enable-background:new 0 0 141.5 75;" xml:space="preserve">
<style type="text/css">
	.st0{fill:url(#SVGID_1_);}
	.st1{fill:#FFFFFF;}
</style>
<g>
	
		<linearGradient id="SVGID_1_" gradientUnits="userSpaceOnUse" x1="85.3499" y1="63.3441" x2="33.1626" y2="11.1568" gradientTransform="matrix(1 0 0 -1 0 74.9402)">
		<stop  offset="0" style="stop-color:#F9004A"/>
		<stop  offset="1" style="stop-color:#4900F4"/>
	</linearGradient>
	<path class="st0" d="M25.8,19.6c0-2.9,1.7-5.5,4.3-6.6L57.8,0.6c1.9-0.8,4-0.8,5.9,0L91.4,13c2.6,1.2,4.3,3.8,4.3,6.6v33.1
		c0,2.7-1.5,5.1-3.8,6.4L64.2,74.1c-2.2,1.2-4.8,1.2-6.9,0L29.6,59.2c-2.4-1.3-3.8-3.7-3.8-6.4V19.6z"/>
	<path class="st1" d="M53.5,59.8l-17.9-9.6c-0.3-0.2-0.5-0.5-0.5-0.8V26.9c0-0.7,0.8-1.2,1.4-0.8l17.9,9.6c0.3,0.2,0.5,0.5,0.5,0.8
		v4c0,0.7-0.8,1.2-1.4,0.8L41.7,35v4.2l7.1,3.8c0.3,0.2,0.5,0.5,0.5,0.8v1.7c0,0.7-0.8,1.2-1.4,0.8l-6.2-3.3v4.2l12.7,6.8
		c0.3,0.2,0.5,0.5,0.5,0.8v4C54.9,59.7,54.1,60.2,53.5,59.8z"/>
	<path class="st1" d="M73.2,46.6v4.2L85,44.5c0.6-0.3,1.4,0.1,1.4,0.8v4c0,0.3-0.2,0.7-0.5,0.8L68,59.8c-0.6,0.3-1.4-0.1-1.4-0.8
		V36.5c0-0.3,0.2-0.7,0.5-0.8L85,26c0.6-0.3,1.4,0.1,1.4,0.8v4c0,0.3-0.2,0.7-0.5,0.8l-12.6,6.8v4.2l6.2-3.3
		c0.6-0.3,1.4,0.1,1.4,0.8V42c0,0.3-0.2,0.7-0.5,0.8L73.2,46.6z"/>
	<path class="st1" d="M0,26.6v22.9c0,0.4,0.3,0.7,0.7,0.7h5.1c0.4,0,0.7-0.3,0.7-0.7v-9.1h6.9c4,0,7.3-3.3,7.3-7.3l0,0
		c0-4-3.3-7.3-7.3-7.3H0.7C0.3,25.9,0,26.2,0,26.6z M12.2,35.7H6.5v-4.9h5.7c1.4,0,2.4,1.1,2.4,2.4l0,0
		C14.7,34.6,13.6,35.7,12.2,35.7z"/>
	<path class="st1" d="M107.2,43.4l1.9-2.5l5.7,9c0.1,0.2,0.3,0.3,0.6,0.3h4.1c0.5,0,0.9-0.6,0.6-1.1l-7.8-12.3l7.6-9.8
		c0.4-0.5,0-1.1-0.5-1.1h-4.4c-0.2,0-0.4,0.1-0.5,0.3l-7.2,9.3v-8.9c0-0.4-0.3-0.7-0.7-0.7h-4.8h-0.3c-0.4,0-0.7,0.3-0.7,0.7v22.9
		c0,0.4,0.3,0.7,0.7,0.7h5.1c0.4,0,0.7-0.3,0.7-0.7L107.2,43.4L107.2,43.4z"/>
	<path class="st1" d="M139.9,30.1v-3.5c0-0.4-0.3-0.7-0.7-0.7h-8c-4,0-7.3,3.3-7.3,7.3v0c0,4,3.3,7.3,7.3,7.3h2.4
		c1.4,0,2.5,1.1,2.5,2.5v0c0,1.4-1.1,2.5-2.5,2.5h-7.9c-0.4,0-0.7,0.3-0.7,0.7v3.5c0,0.4,0.3,0.7,0.7,0.7h8.5c4,0,7.3-3.3,7.3-7.3v0
		c0-4-3.3-7.3-7.3-7.3h-2.6c-1.3,0-2.4-1.1-2.4-2.4v0c0-1.3,1.1-2.4,2.4-2.4h7.6C139.6,30.8,139.9,30.5,139.9,30.1z"/>
</g>
</svg>
