<?xml version="1.0" encoding="UTF-8"?>
<svg width="280px" height="280px" viewBox="0 0 280 280" version="1.1" xmlns="http://www.w3.org/2000/svg" xmlns:xlink="http://www.w3.org/1999/xlink">
    <!-- Generator: Sketch 48.2 (47327) - http://www.bohemiancoding.com/sketch -->
    <title>Combined Shape</title>
    <desc>Created with Sketch.</desc>
    <defs>
        <linearGradient x1="100%" y1="36.4442929%" x2="4.52222266%" y2="83.0920648%" id="linearGradient-1">
            <stop stop-color="#F9004A" offset="0%"></stop>
            <stop stop-color="#4900F4" offset="100%"></stop>
        </linearGradient>
    </defs>
    <g id="Peeks.io10" stroke="none" stroke-width="1" fill="none" fill-rule="evenodd" transform="translate(-917.000000, -1907.000000)">
        <g id="Web-browser" transform="translate(0.000000, 1680.000000)" fill="url(#linearGradient-1)">
            <g id="Group-16" transform="translate(917.000000, 0.000000)">
                <path d="M140,507 C62.680135,507 0,444.319865 0,367 C0,289.680135 62.680135,227 140,227 C217.319865,227 280,289.680135 280,367 C280,444.319865 217.319865,507 140,507 Z M140,467 C195.228475,467 240,422.228475 240,367 C240,311.771525 195.228475,267 140,267 C84.771525,267 40,311.771525 40,367 C40,422.228475 84.771525,467 140,467 Z" id="Combined-Shape"></path>
            </g>
        </g>
    </g>
</svg>