<?xml version="1.0" encoding="UTF-8"?>
<svg width="792px" height="526px" viewBox="0 0 792 526" version="1.1" xmlns="http://www.w3.org/2000/svg" xmlns:xlink="http://www.w3.org/1999/xlink">
    <!-- Generator: Sketch 48.2 (47327) - http://www.bohemiancoding.com/sketch -->
    <title>Rectangle</title>
    <desc>Created with Sketch.</desc>
    <defs>
        <linearGradient x1="85.0135721%" y1="50%" x2="0%" y2="85.2018283%" id="linearGradient-1">
            <stop stop-color="#F9004A" offset="0%"></stop>
            <stop stop-color="#4900F4" offset="100%"></stop>
        </linearGradient>
    </defs>
    <g id="Peeks.io" stroke="none" stroke-width="1" fill="none" fill-rule="evenodd" transform="translate(-648.000000, 0.000000)">
        <g id="Group-3" transform="translate(648.000000, 0.000000)" fill="url(#linearGradient-1)">
            <path d="M67.0810992,3.67159786e-05 L859.657556,3.70612818e-05 C914.886031,3.70612818e-05 959.657556,44.7715619 959.657556,100.000037 C959.657556,102.122838 959.589961,104.245102 959.454876,106.363601 C938.236905,439.116843 887.751946,582.662309 808,537 C676.316644,461.604146 798,209.63927 724,147 C650,84.3607297 145.637696,162.459036 46,129 C46,129 46,129 46,129 L46,129 C11.3289853,117.35723 -7.3390959,79.81249 4.3036737,45.1414753 C13.3603611,18.1715572 38.631142,8.66449782e-05 67.0810992,8.66449782e-05 Z" id="Rectangle"></path>
        </g>
    </g>
</svg>