<?xml version="1.0" encoding="UTF-8"?>
<svg width="340px" height="1428px" viewBox="0 0 340 1428" version="1.1" xmlns="http://www.w3.org/2000/svg" xmlns:xlink="http://www.w3.org/1999/xlink">
    <!-- Generator: Sketch 48.2 (47327) - http://www.bohemiancoding.com/sketch -->
    <title>Rectangle</title>
    <desc>Created with Sketch.</desc>
    <defs>
        <linearGradient x1="85.0135721%" y1="50%" x2="0%" y2="85.2018283%" id="linearGradient-1">
            <stop stop-color="#F9004A" offset="0%"></stop>
            <stop stop-color="#4900F4" offset="100%"></stop>
        </linearGradient>
    </defs>
    <g id="Peeks.io10-team" stroke="none" stroke-width="1" fill="none" fill-rule="evenodd" transform="translate(0.000000, -234.000000)">
        <path d="M-90.8527062,1600.10826 C1.66291877,1476.90034 -226.743331,751.602854 -145.180831,444.296398 C-66.0735131,146.240434 88.3133215,195.056242 88.3133215,405.462492 C88.3133215,615.868742 71.0897066,767.823433 49.28125,1013.16562 C37.7064161,1143.38093 123.882561,1293.93288 307.809684,1464.82146 L307.809683,1464.82146 C348.269876,1502.41344 350.595022,1565.68723 313.00304,1606.14742 C297.616894,1622.70751 277.074002,1633.56617 254.724458,1636.95259 C-26.0495315,1679.49567 -141.241919,1667.21423 -90.8527062,1600.10826 Z" id="Rectangle" fill="url(#linearGradient-1)" transform="translate(88.313322, 947.949996) scale(1, -1) translate(-88.313322, -947.949996) "></path>
    </g>
</svg>