<?xml version="1.0" encoding="UTF-8"?>
<svg width="24px" height="26px" viewBox="0 0 24 26" version="1.1" xmlns="http://www.w3.org/2000/svg" xmlns:xlink="http://www.w3.org/1999/xlink">
    <!-- Generator: Sketch 48.2 (47327) - http://www.bohemiancoding.com/sketch -->
    <title>logo</title>
    <desc>Created with Sketch.</desc>
    <defs>
        <linearGradient x1="100%" y1="36.4442929%" x2="4.52222266%" y2="83.0920648%" id="linearGradient-1">
            <stop stop-color="#F9004A" offset="0%"></stop>
            <stop stop-color="#4900F4" offset="100%"></stop>
        </linearGradient>
    </defs>
    <g id="Logo" stroke="none" stroke-width="1" fill="none" fill-rule="evenodd">
        <g id="logo">
            <g id="LOGO">
                <path d="M13.1877017,25.5430705 L22.687676,20.4141791 C23.4960993,19.9777236 24,19.1330269 24,18.2143096 L24,6.84761888 C24,5.86094154 23.4196715,4.9665571 22.5186076,4.5645423 L13.0186076,0.326063424 C12.3703333,0.0368321873 11.6296667,0.0368321873 10.9813924,0.326063424 L1.48139244,4.5645423 C0.580328471,4.9665571 3.23256085e-16,5.86094154 4.4408921e-16,6.84761888 L-8.8817842e-16,18.2143062 C-7.75667776e-16,19.1330253 0.503902621,19.9777234 1.31232835,20.414178 L10.812354,25.5430728 C11.5535745,25.9432446 12.446482,25.9432437 13.1877017,25.5430705 Z" id="Shape" fill="url(#linearGradient-1)" fill-rule="nonzero"></path>
                <g id="EE" transform="translate(3.000000, 9.000000)" fill="#FFFFFF">
                    <path d="M11,11.1074957 L11,3.76934098 C11,3.58662272 11.0996689,3.41845495 11.2599524,3.33073279 L17.0759382,0.147679 C17.3181748,0.0151043671 17.6220193,0.104002969 17.754594,0.346239585 C17.7948736,0.419837435 17.8159858,0.502387881 17.8159858,0.586287192 L17.8159858,1.6624036 C17.8159858,1.84343059 17.7181371,2.01031897 17.5601652,2.09872508 L13.5393609,4.34889497 C13.381389,4.43730108 13.2835403,4.60418946 13.2835403,4.78521645 L13.2835403,5.87463119 C13.2835403,5.98508815 13.3730833,6.07463121 13.4835403,6.07463121 C13.5185944,6.07463121 13.5530328,6.06541795 13.5834043,6.04791473 L15.2649118,5.07885496 C15.4507843,4.97173589 15.6883008,5.03557812 15.7954199,5.22145058 C15.8294147,5.28043819 15.8473087,5.34732463 15.8473087,5.41540682 L15.8473087,5.79351675 C15.8473087,5.97503543 15.7489325,6.14229659 15.5902886,6.23050736 L13.5405604,7.37021752 C13.3819165,7.45842829 13.2835403,7.62568945 13.2835403,7.80720813 L13.2835403,8.84180761 C13.2835403,8.95226457 13.3730833,9.04180762 13.4835403,9.04180762 C13.5177765,9.04180762 13.5514395,9.03301907 13.5813064,9.01628339 L17.127956,7.02894702 C17.3506098,6.90418475 17.6322462,6.98354154 17.7570085,7.20619537 C17.7956786,7.275207 17.8159858,7.35299003 17.8159858,7.43209744 L17.8159858,7.92444195 C17.8159858,8.10716021 17.7163168,8.27532797 17.5560334,8.36305014 L11.7400476,11.5461039 C11.497811,11.6786786 11.1939664,11.58978 11.0613918,11.3475433 C11.0211121,11.2739455 11,11.191395 11,11.1074957 Z" id="Path"></path>
                    <path d="M0.199996948,11.1074957 L0.199996948,3.76934098 C0.199996948,3.58662272 0.299665888,3.41845495 0.459949341,3.33073279 L6.27593512,0.147679 C6.51817174,0.0151043671 6.82201629,0.104002969 6.95459092,0.346239585 C6.99487058,0.419837435 7.01598273,0.502387881 7.01598273,0.586287192 L7.01598273,1.6624036 C7.01598273,1.84343059 6.91813403,2.01031897 6.7601621,2.09872508 L2.73935786,4.34889497 C2.58138593,4.43730108 2.48353723,4.60418946 2.48353723,4.78521645 L2.48353723,5.87463119 C2.48353723,5.98508815 2.57308029,6.07463121 2.68353725,6.07463121 C2.71859135,6.07463121 2.75302978,6.06541795 2.78340127,6.04791473 L4.46490875,5.07885496 C4.65078121,4.97173589 4.88829777,5.03557812 4.99541685,5.22145058 C5.02941165,5.28043819 5.04730569,5.34732463 5.04730569,5.41540682 L5.04730569,5.79351675 C5.04730569,5.97503543 4.94892945,6.14229659 4.79028554,6.23050736 L2.74055738,7.37021752 C2.58191346,7.45842829 2.48353723,7.62568945 2.48353723,7.80720813 L2.48353723,8.84180761 C2.48353723,8.95226457 2.57308029,9.04180762 2.68353725,9.04180762 C2.71777342,9.04180762 2.75143643,9.03301907 2.78130334,9.01628339 L6.32795296,7.02894702 C6.55060679,6.90418475 6.83224319,6.98354154 6.95700545,7.20619537 C6.99567556,7.275207 7.01598273,7.35299003 7.01598273,7.43209744 L7.01598273,7.92444195 C7.01598273,8.10716021 6.91631379,8.27532797 6.75603034,8.36305014 L0.940044555,11.5461039 C0.69780794,11.6786786 0.393963389,11.58978 0.261388756,11.3475433 C0.221109098,11.2739455 0.199996948,11.191395 0.199996948,11.1074957 Z" id="Path" transform="translate(3.607990, 5.846891) scale(-1, 1) translate(-3.607990, -5.846891) "></path>
                </g>
                <g id="Group-2" transform="translate(2.311111, 8.750000)"></g>
            </g>
        </g>
    </g>
</svg>